<svg width="719" height="129" viewBox="0 0 719 129" fill="none" xmlns="http://www.w3.org/2000/svg">
<path d="M45.5832 51.7363C44.2936 49.242 42.3162 47.2213 39.6507 45.6733C37.0713 44.0392 34.105 43.2223 30.752 43.2223C29.2043 43.2223 27.6567 43.3941 26.1091 43.7383C24.5615 44.082 23.1858 44.6413 21.9821 45.4153C20.7784 46.1893 19.7896 47.178 19.0158 48.3823C18.328 49.5862 17.984 51.0051 17.984 52.6393C17.984 55.4773 19.1448 57.6703 21.4662 59.2183C23.7877 60.6802 27.4417 61.9273 32.4284 62.9593C39.5649 64.4212 44.8094 66.5713 48.1626 69.4093C51.6019 72.1612 53.3214 75.9022 53.3214 80.6323C53.3214 84.072 52.6336 86.9962 51.2579 89.4043C49.9682 91.7263 48.2487 93.6613 46.0991 95.2093C43.9499 96.6712 41.4995 97.7032 38.7479 98.3053C36.0828 98.9932 33.3744 99.3373 30.623 99.3373C26.0661 99.3373 21.6382 98.391 17.3392 96.4993C13.0402 94.6072 9.51511 91.6402 6.76379 87.5983L13.7281 82.4383C15.2757 85.104 17.5541 87.3403 20.5634 89.1463C23.5727 90.9523 26.8829 91.8553 30.494 91.8553C32.3856 91.8553 34.1911 91.683 35.9106 91.3393C37.6304 90.9952 39.1348 90.393 40.4245 89.5333C41.7142 88.6732 42.7459 87.5983 43.5198 86.3083C44.2936 84.9322 44.6805 83.2551 44.6805 81.2773C44.6805 78.0951 43.1328 75.7303 40.0376 74.1823C37.0284 72.5482 32.6435 71.043 26.8829 69.6673C25.0773 69.237 23.1428 68.721 21.0793 68.1193C19.1018 67.431 17.2532 66.4852 15.5337 65.2813C13.8141 63.9913 12.3954 62.4 11.2777 60.5083C10.16 58.6162 9.6011 56.2513 9.6011 53.4133C9.6011 50.3173 10.2029 47.694 11.4067 45.5443C12.6104 43.308 14.201 41.502 16.1785 40.1263C18.242 38.664 20.5634 37.5891 23.1428 36.9013C25.7222 36.213 28.3875 35.8693 31.1389 35.8693C35.3518 35.8693 39.436 36.8152 43.3908 38.7073C47.3459 40.599 50.3122 43.2652 52.2896 46.7053L45.5832 51.7363ZM79.5455 128.749H70.7757V37.4173H79.5455V47.8663H79.9324C82.4257 43.9102 85.736 40.9431 89.863 38.9653C94.0758 36.9013 98.3317 35.8693 102.631 35.8693C107.36 35.8693 111.616 36.6862 115.399 38.3203C119.268 39.954 122.535 42.1903 125.2 45.0283C127.952 47.8663 130.058 51.2203 131.52 55.0903C133.067 58.9603 133.841 63.1311 133.841 67.6033C133.841 72.075 133.067 76.2463 131.52 80.1163C130.058 83.9863 127.952 87.3403 125.2 90.1783C122.535 93.0163 119.268 95.2522 115.399 96.8863C111.616 98.52 107.36 99.3373 102.631 99.3373C98.3317 99.3373 94.0758 98.3482 89.863 96.3703C85.736 94.3063 82.4257 91.3822 79.9324 87.5983H79.5455V128.749ZM124.556 67.6033C124.556 64.2493 124.04 61.11 123.008 58.1863C121.976 55.176 120.471 52.596 118.494 50.4463C116.602 48.21 114.238 46.4473 111.401 45.1573C108.563 43.8673 105.339 43.2223 101.728 43.2223C98.3749 43.2223 95.2797 43.8673 92.4424 45.1573C89.6051 46.3612 87.1547 48.081 85.0912 50.3173C83.0277 52.467 81.394 55.047 80.1904 58.0573C79.0725 60.981 78.5138 64.1632 78.5138 67.6033C78.5138 71.043 79.0725 74.268 80.1904 77.2783C81.394 80.202 83.0277 82.7392 85.0912 84.8893C87.1547 87.039 89.6051 88.7593 92.4424 90.0493C95.2797 91.2532 98.3749 91.8553 101.728 91.8553C105.339 91.8553 108.563 91.2532 111.401 90.0493C114.238 88.7593 116.602 87.039 118.494 84.8893C120.471 82.653 121.976 80.073 123.008 77.1493C124.04 74.139 124.556 70.9573 124.556 67.6033ZM152.64 50.7043C152.64 49.0701 152.598 46.9633 152.511 44.3833C152.425 41.8033 152.296 39.4813 152.125 37.4173H160.508C160.679 39.051 160.808 40.857 160.894 42.8353C160.98 44.8132 161.023 46.4473 161.023 47.7373H161.281C163.001 44.211 165.58 41.373 169.019 39.2233C172.459 36.987 176.328 35.8693 180.627 35.8693C181.744 35.8693 182.733 35.9122 183.593 35.9983C184.539 36.084 185.485 36.2563 186.43 36.5143L185.269 44.7703C184.754 44.598 183.894 44.4262 182.69 44.2543C181.487 44.082 180.283 43.9963 179.079 43.9963C176.758 43.9963 174.522 44.4262 172.373 45.2863C170.223 46.146 168.332 47.5222 166.698 49.4143C165.15 51.2203 163.861 53.5852 162.829 56.5093C161.883 59.3473 161.41 62.787 161.41 66.8293V97.7893H152.64V50.7043ZM208.013 97.7893H199.244V37.4173H208.013V97.7893ZM209.819 14.1972C209.819 16.0031 209.174 17.5081 207.884 18.7121C206.595 19.8301 205.176 20.3891 203.628 20.3891C202.081 20.3891 200.662 19.8301 199.373 18.7121C198.083 17.5081 197.438 16.0031 197.438 14.1972C197.438 12.3911 198.083 10.9291 199.373 9.81113C200.662 8.60714 202.081 8.00513 203.628 8.00513C205.176 8.00513 206.595 8.60714 207.884 9.81113C209.174 10.9291 209.819 12.3911 209.819 14.1972ZM239.224 37.4173C239.396 39.051 239.525 40.857 239.611 42.8353C239.696 44.8132 239.74 46.4473 239.74 47.7373H239.998C241.717 44.211 244.512 41.373 248.381 39.2233C252.25 36.987 256.333 35.8693 260.633 35.8693C268.285 35.8693 274.002 38.148 277.785 42.7063C281.655 47.2642 283.589 53.2843 283.589 60.7663V97.7893H274.819V64.3783C274.819 61.1961 274.561 58.3153 274.045 55.7353C273.529 53.1553 272.627 50.9623 271.337 49.1563C270.133 47.2642 268.456 45.8023 266.307 44.7703C264.244 43.7383 261.621 43.2223 258.44 43.2223C256.119 43.2223 253.84 43.695 251.605 44.6413C249.455 45.5872 247.521 47.049 245.801 49.0273C244.081 50.919 242.706 53.37 241.674 56.3803C240.642 59.304 240.127 62.787 240.127 66.8293V97.7893H231.357V50.7043C231.357 49.0701 231.314 46.9633 231.228 44.3833C231.142 41.8033 231.013 39.4813 230.841 37.4173H239.224ZM309.518 109.915C311.926 113.011 315.193 115.634 319.32 117.784C323.533 119.934 327.96 121.009 332.603 121.009C336.904 121.009 340.557 120.364 343.565 119.074C346.576 117.87 348.982 116.193 350.787 114.043C352.68 111.893 354.057 109.356 354.914 106.432C355.775 103.594 356.204 100.541 356.204 97.2733V85.9213H355.946C353.624 89.7052 350.316 92.6293 346.015 94.6933C341.804 96.7573 337.503 97.7893 333.118 97.7893C328.392 97.7893 324.091 97.0153 320.223 95.4673C316.44 93.9193 313.173 91.812 310.421 89.1463C307.756 86.394 305.649 83.1262 304.102 79.3423C302.64 75.558 301.909 71.4733 301.909 67.0873C301.909 62.787 302.64 58.7451 304.102 54.9613C305.649 51.177 307.756 47.8663 310.421 45.0283C313.173 42.1903 316.44 39.954 320.223 38.3203C324.091 36.6862 328.392 35.8693 333.118 35.8693C337.503 35.8693 341.804 36.9013 346.015 38.9653C350.229 41.0293 353.541 43.9963 355.946 47.8663H356.204V37.4173H364.974V97.2733C364.974 100.541 364.503 104.024 363.555 107.722C362.697 111.42 361.021 114.817 358.525 117.913C356.12 121.009 352.809 123.589 348.595 125.653C344.384 127.717 338.922 128.749 332.216 128.749C326.628 128.749 321.298 127.674 316.225 125.524C311.152 123.374 306.81 120.407 303.199 116.623L309.518 109.915ZM311.195 66.8293C311.195 70.011 311.711 73.0213 312.743 75.8593C313.774 78.6973 315.236 81.1912 317.128 83.3413C319.105 85.491 321.513 87.2113 324.349 88.5013C327.186 89.7052 330.41 90.3073 334.021 90.3073C337.374 90.3073 340.47 89.748 343.307 88.6303C346.144 87.5122 348.595 85.9213 350.658 83.8573C352.722 81.7933 354.314 79.3423 355.43 76.5043C356.636 73.5802 357.236 70.3552 357.236 66.8293C357.236 63.6472 356.636 60.6373 355.43 57.7993C354.314 54.9613 352.722 52.467 350.658 50.3173C348.595 48.1671 346.144 46.4473 343.307 45.1573C340.47 43.8673 337.374 43.2223 334.021 43.2223C330.41 43.2223 327.186 43.8673 324.349 45.1573C321.513 46.4473 319.105 48.1671 317.128 50.3173C315.236 52.467 313.774 54.9613 312.743 57.7993C311.711 60.6373 311.195 63.6472 311.195 66.8293Z" fill="black"/>
<path d="M392.117 37.4174L406.69 86.4374H406.948L423.198 37.4174H431.71L448.218 86.4374H448.476L462.921 37.4174H472.206L453.119 97.7894H443.575L427.454 48.8984H427.196L411.333 97.7894H401.789L382.702 37.4174H392.117Z" fill="black"/>
<path d="M559.42 50.7045C559.42 49.0704 559.378 46.9635 559.291 44.3835C559.207 41.8035 559.078 39.4815 558.904 37.4175H567.287C567.461 39.0513 567.59 40.8573 567.674 42.8355C567.761 44.8134 567.803 46.4475 567.803 47.7375H568.061C569.783 44.2113 572.362 41.3733 575.799 39.2235C579.239 36.9873 583.109 35.8695 587.406 35.8695C588.525 35.8695 589.515 35.9124 590.373 35.9985C591.321 36.0843 592.265 36.2565 593.21 36.5145L592.049 44.7705C591.533 44.5983 590.676 44.4264 589.47 44.2545C588.267 44.0823 587.065 43.9965 585.859 43.9965C583.537 43.9965 581.303 44.4264 579.152 45.2865C577.005 46.1463 575.112 47.5224 573.478 49.4145C571.93 51.2205 570.64 53.5854 569.609 56.5095C568.664 59.3475 568.19 62.7873 568.19 66.8295V97.7895H559.42V50.7045ZM614.922 64.6365H615.309L643.166 37.4175H655.805L625.368 65.0235L658.9 97.7895H646.003L615.309 66.0555H614.922V97.7895H606.152V0.265381H614.922V64.6365ZM702.998 51.7365C701.708 49.2423 699.728 47.2215 697.065 45.6735C694.486 44.0394 691.52 43.2225 688.166 43.2225C686.619 43.2225 685.071 43.3944 683.523 43.7385C681.976 44.0823 680.599 44.6415 679.396 45.4155C678.191 46.1895 677.204 47.1783 676.43 48.3825C675.74 49.5864 675.398 51.0054 675.398 52.6395C675.398 55.4775 676.559 57.6705 678.881 59.2185C681.202 60.6804 684.855 61.9275 689.843 62.9595C696.978 64.4214 702.224 66.5715 705.577 69.4095C709.014 72.1614 710.736 75.9024 710.736 80.6325C710.736 84.0723 710.046 86.9964 708.672 89.4045C707.383 91.7265 705.661 93.6615 703.514 95.2095C701.363 96.6714 698.913 97.7034 696.162 98.3055C693.496 98.9934 690.788 99.3375 688.037 99.3375C683.478 99.3375 679.051 98.3913 674.754 96.4995C670.452 94.6074 666.928 91.6404 664.178 87.5985L671.142 82.4385C672.69 85.1043 674.966 87.3405 677.978 89.1465C680.986 90.9525 684.297 91.8555 687.908 91.8555C689.798 91.8555 691.603 91.6833 693.325 91.3395C695.044 90.9954 696.549 90.3933 697.839 89.5335C699.129 88.6734 700.16 87.5985 700.934 86.3085C701.708 84.9324 702.095 83.2554 702.095 81.2775C702.095 78.0954 700.547 75.7305 697.452 74.1825C694.441 72.5484 690.056 71.0433 684.297 69.6675C682.492 69.2373 680.557 68.7213 678.494 68.1195C676.514 67.4313 674.667 66.4854 672.948 65.2815C671.226 63.9915 669.808 62.4003 668.692 60.5085C667.573 58.6164 667.015 56.2515 667.015 53.4135C667.015 50.3175 667.615 47.6943 668.821 45.5445C670.024 43.3083 671.613 41.5023 673.593 40.1265C675.656 38.6643 677.978 37.5894 680.557 36.9015C683.137 36.2133 685.8 35.8695 688.553 35.8695C692.764 35.8695 696.849 36.8154 700.805 38.7075C704.758 40.5993 707.724 43.2654 709.704 46.7055L702.998 51.7365Z" fill="black"/>
<path fill-rule="evenodd" clip-rule="evenodd" d="M541.967 37.0401C541.967 37.0401 499.269 35.3775 486.466 53.4609C483.521 57.6917 481.555 62.4545 480.695 67.4417C480.339 69.3753 480.117 71.3287 480.031 73.2893C479.841 78.9873 480.53 84.6811 482.079 90.1939C482.93 89.0872 483.957 87.7849 485.175 86.3333C486.054 85.2729 487.026 84.1507 488.074 82.9873C489.123 81.824 490.27 80.6246 491.429 79.384C492.587 78.1435 493.85 76.9338 495.146 75.7087C496.469 74.499 497.759 73.2327 499.159 72.0745C500.559 70.9163 501.904 69.7169 503.321 68.6411L504.831 67.4623L505.38 67.0196L507.483 65.5319L509.509 64.0906L511.523 62.8243C512.83 62.0007 514.049 61.2131 515.246 60.5954L518.452 58.8349L521.011 57.651L523.207 56.6215L521.203 58.0113L518.919 59.5968L516.102 61.8463C515.054 62.639 514.005 63.6067 512.885 64.6208L511.172 66.1651L509.893 67.4417L509.47 67.8689L507.719 69.6294L506.011 71.5186C505.462 72.0899 504.957 72.687 504.441 73.2893C504.024 73.768 503.612 74.2725 503.206 74.7667L502.657 75.4513C501.559 76.7279 500.57 78.1126 499.555 79.4252L499.478 79.5282C498.456 80.8923 497.507 82.277 496.579 83.5948C495.651 84.9125 494.8 86.2303 494.042 87.5018C493.285 88.7732 492.532 89.9469 491.896 91.0639C490.6 93.2825 489.612 95.1819 488.958 96.4843C488.876 96.6439 488.815 96.7777 488.744 96.927C495.563 98.8913 502.751 99.4687 509.827 98.6205C511.772 98.3566 513.691 97.9452 515.564 97.3903C519.165 96.3251 522.544 94.6904 525.557 92.5567C531.491 87.6026 535.642 81.0458 537.438 73.7886C538.025 71.9407 538.536 70.0515 538.975 68.152C541.196 57.9152 542.199 47.4791 541.967 37.035" fill="#0828CC"/>
</svg>
